<svg xmlns="http://www.w3.org/2000/svg" viewBox="0 0 512 512" width="35" height="35"><path d="M358.938 0h-205.86c-19.734 0-35.875 16.141-35.875 35.859v440.266c0 19.734 16.141 35.875 35.875 35.875h205.859c19.719 0 35.859-16.141 35.859-35.875V35.859C394.797 16.141 378.656 0 358.938 0zM229.844 22.156h52.297c1.656 0 2.984 1.344 2.984 3s-1.328 2.969-2.984 2.969h-52.297c-1.656 0-3-1.313-3-2.969s1.344-3 3-3zm26.172 468.172c-8.922 0-16.203-7.25-16.203-16.188s7.281-16.156 16.203-16.156 16.141 7.219 16.141 16.156-7.219 16.188-16.141 16.188zm102.922-60.578h-205.86V56.547h205.859V429.75z" fill="#fff"/></svg>