<svg version="1.1" id="_x32_" xmlns="http://www.w3.org/2000/svg" x="0" y="0" viewBox="0 0 512 512" width="35" height="35" xml:space="preserve"><style>.st0{fill:#fff}</style><path class="st0" d="M149.193 103.525c15.994 0 28.964-12.97 28.964-28.972V28.964C178.157 12.97 165.187 0 149.193 0 133.19 0 120.22 12.97 120.22 28.964v45.589c0 16.003 12.97 28.972 28.973 28.972zM362.815 103.525c15.994 0 28.964-12.97 28.964-28.972V28.964C391.78 12.97 378.81 0 362.815 0c-16.003 0-28.972 12.97-28.972 28.964v45.589c0 16.003 12.97 28.972 28.972 28.972z"/><path class="st0" d="M435.164 41.287h-17.925v33.266c0 30.017-24.415 54.431-54.423 54.431-30.017 0-54.431-24.414-54.431-54.431V41.287h-104.77v33.266c0 30.017-24.414 54.431-54.422 54.431-30.018 0-54.432-24.414-54.432-54.431V41.287H76.836c-38.528 0-69.763 31.235-69.763 69.763v331.187C7.073 480.765 38.308 512 76.836 512h358.328c38.528 0 69.763-31.235 69.763-69.763V111.05c0-38.528-31.236-69.763-69.763-69.763zm35.818 400.95c0 19.748-16.07 35.818-35.818 35.818H76.836c-19.749 0-35.818-16.07-35.818-35.818V155.138h429.964v287.099z"/><path class="st0" d="M183.676 377.571h56.727v56.727h-56.727zM183.676 289.65h56.727v56.727h-56.727zM95.765 377.571h56.718v56.727H95.765zM95.765 289.65h56.718v56.727H95.765zM359.517 201.73h56.718v56.727h-56.718zM271.597 201.73h56.735v56.727h-56.735zM271.597 289.65h56.735v56.727h-56.735zM359.517 377.571h56.718v56.727h-56.718zM359.517 289.65h56.718v56.727h-56.718zM271.597 377.571h56.735v56.727h-56.735zM183.676 201.73h56.727v56.727h-56.727zM95.765 201.73h56.718v56.727H95.765z"/></svg>