<svg version="1.1" id="_x32_" xmlns="http://www.w3.org/2000/svg" x="0" y="0" viewBox="0 0 512 512" width="35" height="35" xml:space="preserve"><style>.st0{fill:#fff}</style><path class="st0" d="M212.306 90.273c0-4.901 6.775-8.079 10.814-9.155C235.612 77.793 256 79.04 256 79.04s20.388-1.247 32.874 2.078c4.046 1.076 10.82 4.254 10.82 9.155v19.976h32.456V85.283c0-21.224-3.748-42.447-76.15-42.447-72.409 0-76.157 21.223-76.157 42.447v24.966h32.462l.001-19.976zM508.372 153.944a46.148 46.148 0 00-16.652-20.224 45.885 45.885 0 00-25.726-7.864H46.006a45.858 45.858 0 00-17.912 3.622 46.024 46.024 0 00-20.23 16.653A45.935 45.935 0 000 171.856v251.302a45.836 45.836 0 003.628 17.912A45.982 45.982 0 0020.28 461.3a45.83 45.83 0 0025.726 7.864H465.994a45.929 45.929 0 0017.912-3.622 46.142 46.142 0 0020.23-16.652 45.953 45.953 0 007.863-25.732V171.856a45.952 45.952 0 00-3.627-17.912zM104.947 447.94H46.006c-3.45 0-6.692-.696-9.643-1.944-4.445-1.874-8.231-5.028-10.922-8.991a24.6 24.6 0 01-4.217-13.848V171.856c0-3.451.684-6.686 1.95-9.643a24.939 24.939 0 018.991-10.916c3.951-2.672 8.681-4.223 13.841-4.223h58.941V447.94zm248.433 0H158.62V147.074h194.76V447.94zm137.39-24.782c0 3.463-.703 6.693-1.944 9.649-1.874 4.439-5.027 8.231-8.991 10.916-3.976 2.665-8.681 4.217-13.841 4.217h-58.941V147.074h58.941c3.438 0 6.68.703 9.631 1.95a24.728 24.728 0 0110.909 8.991c2.678 3.958 4.23 8.674 4.236 13.841v251.302z"/></svg>