<svg version="1.1" id="_x32_" xmlns="http://www.w3.org/2000/svg" x="0" y="0" xml:space="preserve" viewBox="0 0 512 512" width="35" height="35"><style>.st0{fill:#000}</style><path class="st0" d="M291.789 390.688L279.727 380.5c-8.844 10.531-13.203 22.906-15.344 34.125l15.5 2.938c1.797-9.438 5.406-19.188 11.906-26.875zM333.648 366.781l-9.297-12.75c-4.281 3.125-9.484 5.781-15.875 7.781-5.141 1.594-9.781 3.656-13.938 6.125l8.078 13.563c3.047-1.813 6.531-3.391 10.516-4.625 7.938-2.437 14.766-5.906 20.516-10.094zM343.242 316.438c-.406 9.297-3.031 19.219-8.891 27.469L347.242 353c7.969-11.313 11.25-24.188 11.766-35.906l-15.766-.656zM167.398 424.656c-2.313-12.188-7.219-22.719-13.453-31.625l-12.922 9.047v.016c5.125 7.313 9 15.688 10.875 25.5l15.5-2.938zM116.148 360.203l-7.703 13.766c7.797 4.375 16.141 10.094 23.391 17.281l11.109-11.219c-8.578-8.468-18.062-14.937-26.797-19.828z"/><path class="st0" d="M511.805 477.844l-8.703-19.125-90.547-199.469H286.289c-1.703 3-3.25 5.844-5.047 8.906a1288.093 1288.093 0 01-13.531 22.656h69.859l-.125.125c1.172 1.125 3.344 5.219 4.516 10.594l15.375-3.5a61.871 61.871 0 00-2.203-7.219h37.094l72.016 158.641H265.758l13.203-2.047-.016-.125c-.109-.844-.703-5.344-.703-11.719 0-.813.016-1.641.031-2.5l-15.766-.359c-.031.984-.031 1.922-.031 2.859 0 7.297.656 12.5.844 13.891h-94.906c.25-2.578.422-5.109.453-7.578l-15.781-.219c-.031 2.5-.234 5.125-.531 7.797H47.758l38.719-85.297a130.41 130.41 0 018.688 3.313l6.172-14.5a145.654 145.654 0 00-8.313-3.25l26.75-58.906h38.844a1530.606 1530.606 0 01-13.531-22.656c-1.797-3.063-3.344-5.906-5.047-8.906H99.43L.195 477.844c-.313.703-.25 1.5.156 2.156.422.625 1.125 1 1.891 1h507.516c.766 0 1.469-.375 1.891-1a2.3 2.3 0 00.156-2.156z"/><path class="st0" d="M213.164 340.656c5 0 105.156-146.406 105.156-204.5C318.32 78.094 271.242 31 213.164 31c-58.094 0-105.172 47.094-105.172 105.156 0 58.094 100.172 204.5 105.172 204.5zm-40.219-204.5c0-22.219 18.016-40.219 40.219-40.219 22.219 0 40.234 18 40.234 40.219s-18.016 40.234-40.234 40.234c-22.203.001-40.219-18.015-40.219-40.234z"/></svg>